<svg xmlns="http://www.w3.org/2000/svg" viewBox="0 0 1434 505"><defs><style>.cls-1{fill:#231f20;}.cls-2{opacity:0.8;}.cls-3{fill:#fdcd0a;}.cls-4{opacity:0.79;}.cls-5{fill:#e74e3c;}</style></defs><g id="Artwork"><path class="cls-1" d="M417.07,230.35c-2.21-2.06-3.64-4-3.64-6.65s1.9-4.9,4.27-7.27l3-3a5.43,5.43,0,0,1,3.8-1.58,7.45,7.45,0,0,1,4.42,1.74c12,9.33,25.63,16.61,45.4,16.61,18.19,0,36.06-5.7,36.06-18,0-10.92-13.28-13.13-36.54-15-30.05-2.53-56-8.38-56-31.48,0-20.87,21-36.22,55.05-36.22,28.78,0,46,11.07,50.61,15,2.53,2.21,3.8,4.43,3.8,7,0,2.69-1.74,5.06-4.12,7.27L520,161.54a5.78,5.78,0,0,1-3.64,1.58,7.88,7.88,0,0,1-4.58-1.74,64.3,64.3,0,0,0-39.23-13c-16.92,0-33.22,5.86-33.22,16s16.14,12.49,36.07,14.08c36.69,2.84,56.46,9.64,56.46,31.95,0,25.3-25.14,38.75-57.89,38.75C444,249.17,424.66,237.46,417.07,230.35Z"/><path class="cls-1" d="M561.79,222.6V183.05H549a5.15,5.15,0,0,1-5.54-5.53v-5.38c0-3.64,2.22-5.85,5.54-5.85h12.81V140.35c0-3.33,2.06-5.54,5.38-5.54h9c3.48,0,5.7,2.21,5.7,5.54v25.94h21.67c3.64,0,5.85,2.21,5.85,5.85v5.38c0,3.48-2.21,5.53-5.85,5.53H581.88v38.28c0,6.8,3.16,9.65,7.59,9.65a12.76,12.76,0,0,0,8.86-3.8c1.42-1.26,3-2.37,4.74-2.37a5.14,5.14,0,0,1,3.64,1.58l.79.79c2.53,2.53,4.27,4.91,4.27,7.75,0,2.38-1.1,4.91-3.63,7.28-3.48,3.16-10.76,7-20.88,7C570.81,249.17,561.79,240.15,561.79,222.6Z"/><path class="cls-1" d="M628.22,241.26V172.14c0-3.64,2.21-5.85,5.69-5.85H636c7.12,0,10,4.27,10.12,11.54,7.12-8.7,15.82-13.76,26.26-13.76,16.92,0,21.83,13.61,21.83,22.94,0,9.49-4.75,11.7-10.76,11.7h-2.53c-3.64,0-5.85-2.37-5.85-6,0-6.33-1.42-11.23-7.28-11.23-6.8,0-13.44,6.8-19.45,16.29v43.5c0,3.48-2.06,5.69-5.7,5.69h-8.7A5.31,5.31,0,0,1,628.22,241.26Z"/><path class="cls-1" d="M701.13,206.78c0-23.89,19.3-42.71,47.3-42.71,31.32,0,47,23.89,47,40.49,0,5.38-1.74,8.23-7.6,8.23H721.54c2.85,12.18,14.23,19,28.63,19,13,0,21.19-5.85,27.84-11.55a6.46,6.46,0,0,1,4.27-2.05,6,6,0,0,1,3.79,1.58l1.11.95c2.69,2.21,4.59,4.74,4.59,7.75,0,2.69-1.27,5.06-3.48,7.27-5.38,5.38-18,13.45-38.75,13.45C715.05,249.17,701.13,227.34,701.13,206.78Zm73.55-9c-2.68-9.33-11.54-17.24-25.3-17.24-11.71,0-23.73,5.85-27.37,17.24Z"/><path class="cls-1" d="M808.21,221.17c0-16.61,15.5-27.68,38.28-27.68,11.7,0,21.19,2.85,28.31,7.12v-4.43c0-10.44-9.65-14.87-22.14-14.87a46.42,46.42,0,0,0-26.1,7.91c-3.64,2.37-6.33,2.22-8.86-.31l-.79-.8c-4.74-4.74-4.74-10.43.32-14.39,7-5.38,20.24-9.65,35.59-9.65,30,0,41.91,13.61,41.91,31.64v45.55c0,3.48-2.21,5.69-5.85,5.69h-2.21a9.53,9.53,0,0,1-9.49-7.11c-7.12,5.22-17.88,9.33-31,9.33C824,249.17,808.21,238.1,808.21,221.17Zm66.59,5.22V216.11C869.43,212,859.93,209,850,209c-11.71,0-21,4.43-21,12.34,0,8.07,9.81,12.18,21,12.18C860.25,233.51,869.74,230.5,874.8,226.39Z"/><path class="cls-1" d="M917.5,241.26V172c0-3.64,2.22-5.69,5.54-5.69h1.9c6.33,0,9.81,3.16,10.44,8.85a42.85,42.85,0,0,1,29.42-11.07c13.44,0,23.41,5.06,29.26,13.45,7.91-7.75,19.14-13.45,34.48-13.45,23.25,0,36.7,12.81,36.7,37.65v39.54a5.32,5.32,0,0,1-5.7,5.69h-8.85c-3.33,0-5.38-2.21-5.38-5.69V202.82c0-13.44-7.28-21.35-20.25-21.35-10.12,0-18.66,5.22-24.36,10.92a67.63,67.63,0,0,1,.48,8.69v40.18a5.32,5.32,0,0,1-5.7,5.69h-8.7a5.31,5.31,0,0,1-5.69-5.69V200.93c0-12.18-7.43-19.46-20.25-19.46-9.8,0-17.87,5.22-23.25,10.92v48.87c0,3.48-2.21,5.69-5.85,5.69h-8.38C919.72,247,917.5,244.74,917.5,241.26Z"/><path class="cls-1" d="M1088,241.26V128.33c0-3.48,2.21-5.7,5.53-5.7h8.7c3.64,0,5.86,2.22,5.86,5.7V241.26c0,3.48-2.22,5.69-5.86,5.69h-8.7C1090.22,247,1088,244.74,1088,241.26Z"/><path class="cls-1" d="M1130.24,143.67v-6.49a5.14,5.14,0,0,1,5.53-5.53h14.08c3.48,0,5.7,2.21,5.7,5.53v6.49c0,3.48-2.22,5.53-5.7,5.53h-14.08C1132.29,149.2,1130.24,147.15,1130.24,143.67Zm2.53,97.59V172.14c0-3.64,2.21-5.85,5.53-5.85h8.7c3.64,0,5.86,2.21,5.86,5.85v69.12c0,3.48-2.22,5.69-5.86,5.69h-8.7C1135,247,1132.77,244.74,1132.77,241.26Z"/><path class="cls-1" d="M1203,241.89l-35.74-68.17a6.38,6.38,0,0,1-.79-2.85c0-2.53,1.74-4.58,5.06-4.58h9.65c3.64,0,5.37,1,6.8,3.79l27.2,54.57,27.53-54.57c1.42-2.84,3.16-3.79,6.8-3.79h9.65c3.32,0,5.06,2.05,5.06,4.43a7.11,7.11,0,0,1-.79,2.84l-35.91,68.18c-1.74,3.48-4.11,5.21-8.07,5.21h-8.22C1207.11,247,1204.73,245.37,1203,241.89Z"/><path class="cls-1" d="M1277.65,241.26V172.14c0-3.64,2.21-5.85,5.69-5.85h2.06c7.11,0,10,4.27,10.12,11.54,7.12-8.7,15.82-13.76,26.26-13.76,16.92,0,21.82,13.61,21.82,22.94,0,9.49-4.74,11.7-10.75,11.7h-2.53c-3.64,0-5.85-2.37-5.85-6,0-6.33-1.43-11.23-7.28-11.23-6.8,0-13.44,6.8-19.46,16.29v43.5c0,3.48-2,5.69-5.69,5.69h-8.7A5.31,5.31,0,0,1,1277.65,241.26Z"/><path class="cls-1" d="M427.51,360.91V291.37a3.53,3.53,0,0,1,3.71-3.81h68.27a3.59,3.59,0,0,1,3.92,3.81v5.08c0,2.43-1.49,3.81-3.92,3.81h-58V319.2h41a3.59,3.59,0,0,1,3.91,3.82v5.08c0,2.43-1.48,3.81-3.91,3.81h-41v29a3.58,3.58,0,0,1-3.91,3.81h-6.35A3.53,3.53,0,0,1,427.51,360.91Z"/><path class="cls-1" d="M501.92,337.83c0-15.87,13.24-28.58,31-28.58,17.46,0,30.8,12.71,30.8,28.58s-13.34,28.37-30.8,28.37C515.16,366.2,501.92,353.61,501.92,337.83Zm47.64,0c0-9-6.67-16.93-16.62-16.93a16.83,16.83,0,1,0,16.62,16.93Z"/><path class="cls-1" d="M574.54,340.9V314.55a3.53,3.53,0,0,1,3.7-3.81h5.82a3.59,3.59,0,0,1,3.92,3.81v25.72c0,8.89,4.66,14.29,13.34,14.29,7.09,0,12.7-3.71,16.4-7.31v-32.7a3.56,3.56,0,0,1,3.81-3.81h5.72a3.55,3.55,0,0,1,3.81,3.81v46.36c0,2.54-1.48,3.81-3.7,3.81H626c-4.23,0-6.35-2-6.77-5.82a33.37,33.37,0,0,1-21.07,7.3C583.64,366.2,574.54,357.52,574.54,340.9Z"/><path class="cls-1" d="M647.68,360.91V314.55a3.46,3.46,0,0,1,3.81-3.81h1.27c4.23,0,6.35,2,6.88,5.82a32.83,32.83,0,0,1,21-7.31c14.5,0,23.5,8.58,23.5,25.3v26.36a3.48,3.48,0,0,1-3.71,3.81h-5.82a3.55,3.55,0,0,1-3.81-3.81V335.19c0-9-4.66-14.29-13.44-14.29-7.1,0-12.6,3.7-16.2,7.3v32.71a3.55,3.55,0,0,1-3.81,3.81H651.6A3.59,3.59,0,0,1,647.68,360.91Z"/><path class="cls-1" d="M714.89,337.73c0-16.51,12.7-28.48,28.26-28.48a27.48,27.48,0,0,1,15.78,5V285.44c0-2.44,1.37-3.92,3.81-3.92h5.71a3.59,3.59,0,0,1,3.81,3.92v75.47a3.55,3.55,0,0,1-3.81,3.81h-1.06c-3.7,0-6.14-1.91-6.88-5a26.69,26.69,0,0,1-17.78,6.45C726.64,366.2,714.89,353.71,714.89,337.73Zm44,10.16V327.35a18.15,18.15,0,0,0-13.66-6.45c-9.53,0-16.19,7.3-16.19,16.83,0,9.31,6.45,16.72,16.09,16.72A17.74,17.74,0,0,0,758.93,347.89Z"/><path class="cls-1" d="M785.6,347.47c0-11.12,10.37-18.53,25.62-18.53,7.83,0,14.18,1.91,18.94,4.77v-3c0-7-6.45-9.95-14.82-9.95a31,31,0,0,0-17.46,5.29c-2.44,1.59-4.24,1.49-5.93-.21l-.53-.53c-3.17-3.17-3.17-7,.21-9.63,4.66-3.6,13.55-6.46,23.82-6.46,20.11,0,28,9.11,28,21.17v30.49a3.59,3.59,0,0,1-3.92,3.81H838.1a6.39,6.39,0,0,1-6.35-4.76A35.28,35.28,0,0,1,811,366.2C796.18,366.2,785.6,358.79,785.6,347.47ZM830.16,351v-6.88c-3.6-2.75-9.95-4.76-16.62-4.76-7.83,0-14.07,3-14.07,8.25s6.56,8.15,14.07,8.15C820.42,355.72,826.78,353.71,830.16,351Z"/><path class="cls-1" d="M863.82,348.42V322h-8.57a3.46,3.46,0,0,1-3.71-3.71v-3.6a3.56,3.56,0,0,1,3.71-3.91h8.57V293.38a3.42,3.42,0,0,1,3.6-3.71h6a3.54,3.54,0,0,1,3.82,3.71v17.36h14.5a3.61,3.61,0,0,1,3.91,3.91v3.6c0,2.33-1.48,3.71-3.91,3.71h-14.5v25.61c0,4.55,2.11,6.46,5.08,6.46a8.5,8.5,0,0,0,5.92-2.54,5.11,5.11,0,0,1,3.18-1.59,3.41,3.41,0,0,1,2.43,1.06l.53.53c1.7,1.69,2.86,3.28,2.86,5.19a6.73,6.73,0,0,1-2.43,4.86c-2.33,2.12-7.2,4.66-14,4.66C869.86,366.2,863.82,360.17,863.82,348.42Z"/><path class="cls-1" d="M906.59,295.6v-4.34a3.44,3.44,0,0,1,3.7-3.7h9.42a3.53,3.53,0,0,1,3.81,3.7v4.34a3.47,3.47,0,0,1-3.81,3.7h-9.42A3.39,3.39,0,0,1,906.59,295.6Zm1.69,65.31V314.65a3.56,3.56,0,0,1,3.7-3.91h5.83a3.61,3.61,0,0,1,3.91,3.91v46.26a3.58,3.58,0,0,1-3.91,3.81H912A3.53,3.53,0,0,1,908.28,360.91Z"/><path class="cls-1" d="M933.79,337.83c0-15.87,13.23-28.58,31-28.58,17.47,0,30.8,12.71,30.8,28.58s-13.33,28.37-30.8,28.37C947,366.2,933.79,353.61,933.79,337.83Zm47.63,0c0-9-6.67-16.93-16.62-16.93a16.83,16.83,0,1,0,16.62,16.93Z"/><path class="cls-1" d="M1007.67,360.91V314.55a3.46,3.46,0,0,1,3.81-3.81h1.27c4.24,0,6.35,2,6.88,5.82a32.83,32.83,0,0,1,21-7.31c14.5,0,23.5,8.58,23.5,25.3v26.36a3.48,3.48,0,0,1-3.71,3.81h-5.82a3.55,3.55,0,0,1-3.81-3.81V335.19c0-9-4.65-14.29-13.44-14.29-7.09,0-12.6,3.7-16.2,7.3v32.71a3.55,3.55,0,0,1-3.81,3.81h-5.71A3.59,3.59,0,0,1,1007.67,360.91Z"/><g class="cls-2"><path class="cls-3" d="M121.13,127.36c10.72,57.46,59,101,116.86,101s106.16-43.49,116.86-100.95h28.49c-7.72,51.53-39.8,94.7-83.42,116a140.62,140.62,0,0,1-125.3-.72c-42.89-21.57-74.34-64.35-82-115.32Z"/></g><g class="cls-4"><path class="cls-5" d="M118.7,364.71c8.37-60.41,58-106.94,117.84-106.94S346,304.3,354.37,364.71h28.32c-6-53.58-38.22-98.9-82.77-121.31a140.62,140.62,0,0,0-125.3-.72c-45.32,22.16-78.18,67.85-84.22,122Z"/></g><g class="cls-4"><path class="cls-5" d="M168.62,364.71c3.76-35.87,32.81-63.86,68-63.86s64.17,28,67.95,63.86h16.19C318,332.87,299.23,305.82,273,292.6a80.71,80.71,0,0,0-71.94-.4c-26.7,13-45.85,40.34-48.59,72.51Z"/></g><g class="cls-2"><path class="cls-3" d="M169.57,127.36c6.15,33,33.91,57.93,67.09,57.93s60.92-25,67.08-57.93h16.37c-4.45,29.58-22.86,54.35-47.91,66.58a80.67,80.67,0,0,1-71.92-.4c-24.63-12.38-42.68-36.94-47.06-66.18Z"/></g><g class="cls-4"><ellipse class="cls-5" cx="237.99" cy="348.86" rx="17.11" ry="17.97"/></g><g class="cls-2"><ellipse class="cls-3" cx="236.58" cy="146.28" rx="17.11" ry="17.97"/></g></g></svg>